<?xml version="1.0" encoding="utf-8"?>
<!-- Generator: Adobe Illustrator 27.9.0, SVG Export Plug-In . SVG Version: 6.00 Build 0)  -->
<svg version="1.1" id="Layer_1" xmlns="http://www.w3.org/2000/svg" xmlns:xlink="http://www.w3.org/1999/xlink" x="0px" y="0px"
	 viewBox="0 0 514.4 175.3" style="enable-background:new 0 0 514.4 175.3;" xml:space="preserve">
<style type="text/css">
	.st0{fill:#486D8D;}
	.st1{fill:#0FB400;}
</style>
<g>
	<path class="st0" d="M213.1,116.1c-1.3,18.4-8.1,32.8-20.3,43.4s-28.3,15.8-48.3,15.8c-21.9,0-39.1-7.4-51.6-22.1
		C80.3,138.5,74,118.3,74,92.6V82.1c0-16.4,2.9-30.9,8.7-43.4c5.8-12.5,14-22.1,24.8-28.8c10.7-6.7,23.2-10,37.4-10
		c19.7,0,35.5,5.3,47.6,15.8s19,25.4,20.9,44.4h-35.2c-0.9-11-3.9-19-9.2-24s-13.3-7.4-24.1-7.4c-11.7,0-20.5,4.2-26.3,12.6
		s-8.8,21.4-9,39.1v12.9c0,18.4,2.8,31.9,8.4,40.4s14.4,12.8,26.4,12.8c10.9,0,19-2.5,24.3-7.4c5.4-5,8.4-12.6,9.2-23
		C177.9,116.1,213.1,116.1,213.1,116.1z"/>
	<path class="st0" d="M324.7,128.2c0-6.6-2.3-11.7-7-15.3c-4.7-3.6-13.1-7.3-25.3-11.2c-12.2-3.9-21.8-7.8-28.9-11.7
		c-19.4-10.5-29.1-24.6-29.1-42.3c0-9.2,2.6-17.4,7.8-24.7c5.2-7.2,12.7-12.9,22.4-16.9C274.3,2,285.2,0,297.3,0
		c12.2,0,23,2.2,32.6,6.6c9.5,4.4,16.9,10.6,22.2,18.7c5.3,8,7.9,17.2,7.9,27.4h-35.2c0-7.8-2.5-13.9-7.4-18.2S305.6,28,296.7,28
		c-8.6,0-15.3,1.8-20,5.4s-7.1,8.4-7.1,14.4c0,5.5,2.8,10.2,8.4,13.9c5.6,3.7,13.8,7.3,24.7,10.5c20,6,34.6,13.5,43.7,22.4
		s13.7,20,13.7,33.3c0,14.8-5.6,26.3-16.8,34.7c-11.2,8.4-26.2,12.6-45.1,12.6c-13.1,0-25.1-2.4-35.9-7.2s-19-11.4-24.7-19.7
		c-5.7-8.4-8.5-18-8.5-29.1h35.3c0,18.8,11.2,28.2,33.8,28.2c8.4,0,14.9-1.7,19.6-5.1S324.7,134.3,324.7,128.2z"/>
	<path class="st0" d="M418.9,112.9V173h-35.2V2.3h66.6c12.8,0,24.1,2.3,33.8,7s17.2,11.3,22.4,20c5.2,8.6,7.9,18.5,7.9,29.5
		c0,16.7-5.7,29.9-17.2,39.6c-11.4,9.6-27.3,14.5-47.5,14.5C449.7,112.9,418.9,112.9,418.9,112.9z M418.9,84.4h31.4
		c9.3,0,16.4-2.2,21.3-6.6s7.3-10.6,7.3-18.8c0-8.4-2.5-15.1-7.4-20.3s-11.7-7.8-20.4-8h-32.2L418.9,84.4L418.9,84.4z"/>
</g>
<g>
	<path class="st0" d="M25.8,130.7c4.7,0,8.9,0.8,12.5,2.5c3.6,1.7,6.3,4.1,8.3,7.2c1.9,3.1,2.9,6.7,2.9,10.7s-1,7.5-2.9,10.7
		s-4.7,5.6-8.2,7.3c-3.6,1.7-7.6,2.6-12.3,2.6h-2.4c-4.7,0-8.9-0.9-12.5-2.6s-6.4-4.1-8.3-7.2S0,155.2,0,151.2s1-7.6,2.9-10.7
		c1.9-3.1,4.7-5.5,8.3-7.2s7.8-2.6,12.5-2.6H25.8z M23.6,140.8c-5,0-8.9,0.9-11.5,2.7s-3.9,4.4-3.9,7.7s1.3,5.9,3.9,7.7
		s6.4,2.7,11.4,2.7h2.3c4.9,0,8.7-0.9,11.4-2.7c2.7-1.8,4.1-4.4,4.1-7.8c0-3.3-1.3-5.9-3.9-7.7c-2.6-1.8-6.4-2.7-11.4-2.7h-2.4
		V140.8z"/>
	<path class="st0" d="M31.8,113.6h17v9.9H0.7v-18.8c0-3.6,0.7-6.8,2-9.5s3.2-4.9,5.6-6.3c2.4-1.5,5.2-2.2,8.3-2.2
		c4.7,0,8.4,1.6,11.2,4.8c2.7,3.2,4.1,7.7,4.1,13.4v8.7H31.8z M23.8,113.6v-8.9c0-2.6-0.6-4.6-1.9-6c-1.2-1.4-3-2.1-5.3-2.1
		c-2.4,0-4.3,0.7-5.7,2.1c-1.5,1.4-2.2,3.3-2.2,5.7v9.1h15.1V113.6z"/>
	<path class="st0" d="M27.9,50.9v19h12.9V47.6h8v32.2H0.7V47.7h8V70h11.5V51L27.9,50.9L27.9,50.9z"/>
	<path class="st0" d="M48.8,2.7v9.9L17.1,31.9h31.7v9.9H0.7v-9.9l31.7-19.3H0.7V2.7H48.8z"/>
</g>
<g>
	<path class="st1" d="M461.2,152.2l4.2-2.8l4,6.5l-16.3,10.7c-0.3-0.4-0.4-0.6-0.4-0.6c-1.2-1.9-2-3.9-2.1-5.9
		c-0.1-1.1,0-2.2,0.2-3.5c0.2-1.3,0.6-2.6,1.2-4.1c0.9-2.5,1.5-4.2,1.6-5.2c0.1-0.9,0-1.7-0.4-2.3c-0.4-0.6-0.9-1-1.5-1.1
		c-0.6-0.2-1.3,0-2,0.5c-1.5,1-1.6,2.4-0.4,4.4L444,152c-1.4-2.4-1.7-4.6-0.9-6.5c0.8-1.9,2.3-3.6,4.6-5.1c2.4-1.6,4.8-2.3,7-2.2
		c2.2,0.1,4,1.1,5.2,2.9c0.8,1.2,1.1,2.5,1,4c-0.1,1.5-0.9,3.5-2.4,6.1c-1.2,2.1-1.9,3.5-2.2,4.4c-0.3,0.9-0.4,1.7-0.3,2.6l6.4-4.2
		L461.2,152.2z"/>
	<path class="st1" d="M481.6,148l-7.3,4.8l-3.5-5.3l7.3-4.8L481.6,148z"/>
	<path class="st1" d="M478.7,135.1c-2.2-3.3-3-6.5-2.5-9.5c0.5-3,2-5.3,4.4-6.8c2.5-1.6,5.2-2.1,8.1-1.3c2.9,0.8,5.5,2.8,7.6,6
		c2.2,3.4,3.1,6.5,2.5,9.5c-0.5,3-2,5.2-4.4,6.8c-2.5,1.6-5.2,2.1-8.1,1.3C483.3,140.3,480.8,138.3,478.7,135.1z M485.3,130.7
		c1.7,2.6,3,4.1,3.9,4.6c0.9,0.5,1.7,0.6,2.4,0.1c0.7-0.5,0.9-1.2,0.8-2.3c-0.2-1.1-1.1-2.8-2.7-5.3c-1.7-2.6-3-4.1-3.9-4.7
		c-0.9-0.5-1.7-0.5-2.3-0.1c-0.6,0.4-0.9,1.1-0.8,2.2C482.7,126.3,483.6,128.2,485.3,130.7z"/>
</g>
</svg>
