<?xml version="1.0" encoding="UTF-8"?>
<svg id="Layer_1" xmlns="http://www.w3.org/2000/svg" version="1.1" viewBox="0 0 514.4 175.3">
  <!-- Generator: Adobe Illustrator 30.2.1, SVG Export Plug-In . SVG Version: 2.1.1 Build 1)  -->
  <defs>
    <style>
      .st0 {
        fill: #486d8d;
      }

      .st1 {
        display: none;
      }

      .st2 {
        fill: #0fb400;
      }
    </style>
  </defs>
  <g>
    <path class="st0" d="M213.1,116.1c-1.3,18.4-8.1,32.8-20.3,43.4s-28.3,15.8-48.3,15.8-39.1-7.4-51.6-22.1c-12.6-14.7-18.9-34.9-18.9-60.6v-10.5c0-16.4,2.9-30.9,8.7-43.4,5.8-12.5,14-22.1,24.8-28.8C118.2,3.2,130.7-.1,144.9-.1s35.5,5.3,47.6,15.8c12.1,10.5,19,25.4,20.9,44.4h-35.2c-.9-11-3.9-19-9.2-24s-13.3-7.4-24.1-7.4-20.5,4.2-26.3,12.6-8.8,21.4-9,39.1v12.9c0,18.4,2.8,31.9,8.4,40.4s14.4,12.8,26.4,12.8,19-2.5,24.3-7.4c5.4-5,8.4-12.6,9.2-23,0,0,35.2,0,35.2,0Z"/>
    <path class="st0" d="M324.7,128.2c0-6.6-2.3-11.7-7-15.3-4.7-3.6-13.1-7.3-25.3-11.2-12.2-3.9-21.8-7.8-28.9-11.7-19.4-10.5-29.1-24.6-29.1-42.3s2.6-17.4,7.8-24.7c5.2-7.2,12.7-12.9,22.4-16.9,9.7-4.1,20.6-6.1,32.7-6.1s23,2.2,32.6,6.6c9.5,4.4,16.9,10.6,22.2,18.7,5.3,8,7.9,17.2,7.9,27.4h-35.2c0-7.8-2.5-13.9-7.4-18.2s-11.8-6.5-20.7-6.5-15.3,1.8-20,5.4-7.1,8.4-7.1,14.4,2.8,10.2,8.4,13.9c5.6,3.7,13.8,7.3,24.7,10.5,20,6,34.6,13.5,43.7,22.4s13.7,20,13.7,33.3-5.6,26.3-16.8,34.7c-11.2,8.4-26.2,12.6-45.1,12.6s-25.1-2.4-35.9-7.2-19-11.4-24.7-19.7c-5.7-8.4-8.5-18-8.5-29.1h35.3c0,18.8,11.2,28.2,33.8,28.2s14.9-1.7,19.6-5.1,6.9-8,6.9-14.1Z"/>
    <path class="st0" d="M418.9,112.9v60.1h-35.2V2.3h66.6c12.8,0,24.1,2.3,33.8,7,9.7,4.7,17.2,11.3,22.4,20,5.2,8.6,7.9,18.5,7.9,29.5,0,16.7-5.7,29.9-17.2,39.6-11.4,9.6-27.3,14.5-47.5,14.5,0,0-30.8,0-30.8,0ZM418.9,84.4h31.4c9.3,0,16.4-2.2,21.3-6.6s7.3-10.6,7.3-18.8-2.5-15.1-7.4-20.3-11.7-7.8-20.4-8h-32.2v53.7h0Z"/>
  </g>
  <g>
    <path class="st0" d="M25.8,130.7c4.7,0,8.9.8,12.5,2.5,3.6,1.7,6.3,4.1,8.3,7.2,1.9,3.1,2.9,6.7,2.9,10.7s-1,7.5-2.9,10.7-4.7,5.6-8.2,7.3c-3.6,1.7-7.6,2.6-12.3,2.6h-2.4c-4.7,0-8.9-.9-12.5-2.6s-6.4-4.1-8.3-7.2-2.9-6.7-2.9-10.7,1-7.6,2.9-10.7c1.9-3.1,4.7-5.5,8.3-7.2,3.6-1.7,7.8-2.6,12.5-2.6h2.1ZM23.6,140.8c-5,0-8.9.9-11.5,2.7s-3.9,4.4-3.9,7.7,1.3,5.9,3.9,7.7,6.4,2.7,11.4,2.7h2.3c4.9,0,8.7-.9,11.4-2.7,2.7-1.8,4.1-4.4,4.1-7.8s-1.3-5.9-3.9-7.7c-2.6-1.8-6.4-2.7-11.4-2.7h-2.4s0,.1,0,.1Z"/>
    <path class="st0" d="M31.8,113.6h17v9.9H.7v-18.8c0-3.6.7-6.8,2-9.5,1.3-2.7,3.2-4.9,5.6-6.3,2.4-1.5,5.2-2.2,8.3-2.2,4.7,0,8.4,1.6,11.2,4.8,2.7,3.2,4.1,7.7,4.1,13.4v8.7h-.1ZM23.8,113.6v-8.9c0-2.6-.6-4.6-1.9-6-1.2-1.4-3-2.1-5.3-2.1s-4.3.7-5.7,2.1c-1.5,1.4-2.2,3.3-2.2,5.7v9.1h15.1Z"/>
    <path class="st0" d="M27.9,50.9v19h12.9v-22.3h8v32.2H.7v-32.1h8v22.3h11.5v-19h7.7Z"/>
    <path class="st0" d="M48.8,2.7v9.9l-31.7,19.3h31.7v9.9H.7v-9.9l31.7-19.3H.7V2.7h48.1Z"/>
  </g>
  <g class="st1">
    <path class="st2" d="M461.2,152.2l4.2-2.8,4,6.5-16.3,10.7c-.3-.4-.4-.6-.4-.6-1.2-1.9-2-3.9-2.1-5.9-.1-1.1,0-2.2.2-3.5s.6-2.6,1.2-4.1c.9-2.5,1.5-4.2,1.6-5.2.1-.9,0-1.7-.4-2.3s-.9-1-1.5-1.1c-.6-.2-1.3,0-2,.5-1.5,1-1.6,2.4-.4,4.4l-5.3,3.2c-1.4-2.4-1.7-4.6-.9-6.5.8-1.9,2.3-3.6,4.6-5.1,2.4-1.6,4.8-2.3,7-2.2s4,1.1,5.2,2.9c.8,1.2,1.1,2.5,1,4s-.9,3.5-2.4,6.1c-1.2,2.1-1.9,3.5-2.2,4.4-.3.9-.4,1.7-.3,2.6l6.4-4.2-1.2-1.8Z"/>
    <path class="st2" d="M481.6,148l-7.3,4.8-3.5-5.3,7.3-4.8,3.5,5.3Z"/>
    <path class="st2" d="M478.7,135.1c-2.2-3.3-3-6.5-2.5-9.5s2-5.3,4.4-6.8c2.5-1.6,5.2-2.1,8.1-1.3,2.9.8,5.5,2.8,7.6,6,2.2,3.4,3.1,6.5,2.5,9.5-.5,3-2,5.2-4.4,6.8-2.5,1.6-5.2,2.1-8.1,1.3-3-.8-5.5-2.8-7.6-6ZM485.3,130.7c1.7,2.6,3,4.1,3.9,4.6s1.7.6,2.4.1c.7-.5.9-1.2.8-2.3-.2-1.1-1.1-2.8-2.7-5.3-1.7-2.6-3-4.1-3.9-4.7-.9-.5-1.7-.5-2.3,0-.6.4-.9,1.1-.8,2.2,0,1.1.9,3,2.6,5.5Z"/>
  </g>
  <g>
    <path class="st2" d="M445.7,164.1l6.2-4.5c1.8,2.6,3.8,3.2,6.2,1.7s1.6-1.4,1.8-2.3c.1-.9,0-1.7-.5-2.5-1.3-2-3.3-2.3-6.1-.7l-2.5-4.1c.8-.5,1.5-1.3,1.9-2.2.4-.9.4-1.9-.2-2.8s-1.1-1.2-1.9-1.4c-.8-.2-1.6,0-2.4.5-1.7,1.1-2.1,2.6-1,4.6l-7,3.8c-1.4-2.6-1.6-5.1-.5-7.4,1-2.3,3.1-4.5,6.2-6.4s6.2-2.9,8.7-2.6c2.5.3,4.3,1.5,5.6,3.5s1,2.5.9,3.8c-.1,1.4-.7,2.6-1.6,3.7,1.7-.6,3.3-.6,4.8,0s2.7,1.6,3.6,3.1c1.5,2.4,1.7,4.9.5,7.5s-3.4,4.9-6.6,6.9-6.3,2.9-9.1,2.6c-2.7-.3-5-1.9-7-4.8Z"/>
    <path class="st2" d="M486.6,150.7l-9,5.6-4-6.6,9-5.6,4,6.6Z"/>
    <path class="st2" d="M483.5,135.1c-2.5-4.1-3.4-7.9-2.7-11.5.7-3.6,2.6-6.3,5.5-8.1s6.4-2.3,9.9-1.2c3.5,1.1,6.5,3.6,8.9,7.5s3.5,8,2.7,11.6c-.8,3.6-2.6,6.2-5.5,8s-6.3,2.3-9.9,1.2c-3.5-1.1-6.5-3.6-8.9-7.5ZM491.7,130c1.9,3.1,3.4,5.1,4.5,5.7,1.1.7,2,.8,2.9.3s1.2-1.4,1-2.7c-.2-1.3-1.2-3.4-3.1-6.5s-3.5-5.1-4.5-5.8c-1.1-.6-2-.7-2.8-.2s-1.1,1.3-1,2.6c.1,1.2,1.1,3.5,3.1,6.6Z"/>
  </g>
</svg>