<svg xmlns="http://www.w3.org/2000/svg" xml:space="preserve" id="Layer_1" x="0" y="0" style="enable-background:new 0 0 382 99.7" version="1.1" viewBox="0 0 382 99.7"><style>.st0{fill:#636363}.st2{fill:#fff}</style><path d="M240.6 82.5c0 7.4 6.1 13.3 13.5 13.3s13.3-6 13.4-13.4c0-7.9-6-13.2-13.6-13.2s-13.3 5.9-13.3 13.3M254 71.7c6.4 0 10.6 4.9 10.6 10.7 0 6.3-4.6 10.7-10.5 10.7s-10.5-4.8-10.5-10.6c-.1-5.9 4.1-10.8 10.4-10.8zm-39.7-8.4v6.6h-3.7v2h3.8v16.5c.1 3.9 2 7 6.7 7.1 1.2 0 2.1-.2 3-.4v-2.3c-.7.3-1.6.5-2.5.5-2.3 0-4.5-1.6-4.5-4.8V71.9h5.8v-2h-5.8v-6.6h-2.8zm19 31.8V69.8h-2.8v25.3h2.8zm-3.6-31.9c0 1.2 1 2.2 2.2 2.2s2.2-1 2.2-2.2c0-1.2-1-2.2-2.2-2.2s-2.2 1-2.2 2.2m70.7 12.5c0 2.3.9 4.7 4.4 6.4.9.4 2.6 1.2 4.2 1.9 2 .9 3.4 2.6 3.4 4.8 0 2.6-2.1 4.6-5.5 4.6-2.8 0-4.4-1.9-5.2-3.2l-2.3 1.2c1.5 2.8 4.2 4.3 7.6 4.3 4.4 0 8.1-2.7 8.2-7.4 0-3-1.8-5.3-4.9-6.7l-2.6-1.2c-2.1-.9-4.5-2.1-4.5-5 0-2.3 2-4.1 4.3-4.1 2.5 0 3.8 1.7 4.4 2.8l2.2-1c-1.2-2.6-3.5-4.1-6.5-4.1-4.3.2-7.1 3-7.2 6.7m-95 11.4V69.8h-2.7v17.4c0 4.2-3.4 6.3-6.8 6.3s-7.2-1.5-7.2-6.4V69.8h-2.8v17.4c.1 6 4 8.5 9.9 8.5 5.1.1 9.5-2.7 9.6-8.6M168 82.4c0-7.9-6-13.2-13.6-13.2s-13.3 5.9-13.3 13.3 6.1 13.3 13.5 13.3c7.4.1 13.3-6 13.4-13.4m-24 .1c0-5.9 4.2-10.9 10.4-10.9 6.4 0 10.6 4.9 10.6 10.7 0 6.3-4.6 10.7-10.5 10.7-5.9.1-10.5-4.6-10.5-10.5m33.5 12.6V60.9h-2.8v34.2h2.8zm100.7-21.8-1.3 2v-5.4h-2.7v25.3h2.8V81c0-4.6 2.5-9.1 8.1-9.1 1.9 0 3.5.5 4.6 1.6 1.1 1.1 1.5 2.7 1.5 4.5v17.1h2.8V76.7c0-4.6-3.2-7.4-8.5-7.5-3.2 0-5.4 1.3-7.3 4.1M136.5 88.4c0-3-1.8-5.3-4.9-6.7l-2.6-1.2c-2.1-.9-4.5-2.1-4.6-5 0-2.3 2-4.1 4.3-4.1 2.5 0 3.8 1.7 4.4 2.8l2.2-1c-1.2-2.6-3.5-4.1-6.5-4.1-4.3 0-7.2 2.8-7.2 6.5 0 2.3.9 4.7 4.4 6.4.9.4 2.5 1.2 4.2 1.9 2 .9 3.4 2.6 3.4 4.8 0 2.6-2.1 4.6-5.5 4.6-2.8 0-4.4-1.9-5.2-3.2l-2.3 1.2c1.5 2.8 4.2 4.3 7.6 4.3 4.6.2 8.3-2.5 8.3-7.2M155.5 33.3l-6.4-18.6H141l-6 18.5-6.7-18.5h-10.6L130.5 48h8.6l6-17.8 6.2 17.8h8.6l12.6-33.3H162zM176.8 14.7h10.1V48h-10.1zM181.4 0c-3.4 0-6.1 2.8-6.1 6.1 0 3.4 2.6 6.1 5.9 6.1 3.5 0 6.2-2.8 6.2-6.2.1-3.4-2.7-6-6-6M223.5 14.7h-12.2l-9.5 11.9v-23h-10V48h10V34.6c.7 1 9.9 13.4 9.9 13.4h12.7l-14-17.9 13.1-15.4zM227.3 14.7h10V48h-10zM231.9 0c-3.4 0-6.1 2.8-6.1 6.1 0 3.4 2.6 6.1 5.9 6.1 3.5 0 6.2-2.8 6.2-6.2.1-3.4-2.7-6-6-6M263.4 14.1c-5.8 0-10.2 3.8-10.2 3.8V3.6h-10V48h9.8v-3.5c3.1 3 6.3 4.3 10.7 4.3 9.3 0 15.2-8.1 15.2-17.3 0-9.1-5.8-17.4-15.5-17.4zm-1.9 25.8c-5.2 0-8.6-3.3-8.6-8.4 0-4.8 3.5-8 8.2-8 4.5 0 7.8 3.6 7.8 7.8 0 4.7-2.5 8.6-7.4 8.6zM307.8 14.7v3.4c-3-2.7-5.5-4.1-9.6-4.1-9.2 0-16.1 8.2-16.1 17.4 0 10.6 6.3 17.2 15.6 17.2 6.3 0 9.9-4 9.9-4v3.2h10.1V14.7h-9.9zM300 39.8c-4.6 0-7.6-3.8-7.6-8.4 0-4.4 3.1-7.9 7.9-7.9 4.4 0 7.9 3.3 7.9 8.2 0 4.8-3.8 8.1-8.2 8.1zM330.9 24.2c0-1.3 1-2 2.6-2 2.9 0 4.1 2.6 4.1 2.6l7.6-3.4c-2.1-4.6-6.1-7.3-10.9-7.3-7.3 0-12.7 4.4-12.7 10.8 0 11.7 14.9 9.5 14.9 13.6 0 1.6-1.9 2.3-3.6 2.3-3 0-4.6-2.9-4.6-2.9l-7.7 3.9c2.6 4.9 6.7 6.9 12.3 6.9 7 0 13.3-3.8 13.3-11 .1-11.3-15.3-9.7-15.3-13.5M382.6 32.3c0-11.8-6.8-18.2-16.3-18.2-9.8 0-17 7.2-17 17.3 0 11.1 7 17.3 17.2 17.3 7 0 12.6-3.5 15.5-8.6-1.8-1.1-7.8-4.6-7.8-4.6-1.7 2.3-3.9 4.6-7.2 4.6-3.8 0-6.9-1.9-7.8-5.8h23.4c.1-.7 0-1.2 0-2zm-23.1-5c1.2-3.1 3.1-4.7 6.5-4.7 3.1 0 4.9 1.5 6 4.7h-12.5z" class="st0"/><path d="M82.7 99.7H15.3C6.9 99.7 0 92.9 0 84.4V17C0 8.5 6.9 1.7 15.3 1.7h67.4C91.2 1.7 98 8.6 98 17v67.4c.1 8.5-6.8 15.3-15.3 15.3z" style="fill:#acce1b"/><path d="M41.2 78.1H24.6c-1.7 0-3.1-1.4-3.1-3.1V26.3c0-1.7 1.4-3.1 3.1-3.1h16.5c1.5 0 2.9-1.1 3.1-2.6.1-1.7-1.2-3.1-2.9-3.1H18.9c-1.7 0-3.1 1.4-3.1 3.1v60.2c0 1.7 1.4 3.1 3.1 3.1h22.5c1.7 0 3-1.4 2.9-3.1-.2-1.5-1.6-2.7-3.1-2.7zM56.9 23.3h16.5c1.7 0 3.1 1.4 3.1 3.1v48.7c0 1.7-1.4 3.1-3.1 3.1H56.9c-1.5 0-2.9 1.1-3.1 2.6-.1 1.8 1.2 3.2 2.9 3.2h22.5c1.7 0 3.1-1.4 3.1-3.1V20.6c0-1.7-1.4-3.1-3.1-3.1H56.6c-1.7 0-3 1.4-2.9 3.1.2 1.6 1.6 2.7 3.2 2.7z" class="st2"/><circle cx="49" cy="50.7" r="8.7" class="st2"/></svg>